<?xml version="1.0" standalone="no"?>
<!DOCTYPE svg PUBLIC "-//W3C//DTD SVG 20010904//EN"
 "http://www.w3.org/TR/2001/REC-SVG-20010904/DTD/svg10.dtd">
<svg version="1.0" xmlns="http://www.w3.org/2000/svg"
 width="1017.000000pt" height="763.000000pt" viewBox="0 0 1017.000000 763.000000"
 preserveAspectRatio="xMidYMid meet">

<g transform="translate(0.000000,763.000000) scale(0.100000,-0.100000)"
fill="#000000" stroke="none">
<path d="M5334 7524 c10 -98 26 -184 42 -222 8 -18 14 -44 14 -57 0 -13 4 -26
9 -29 4 -3 11 -25 15 -48 4 -23 13 -62 20 -87 16 -53 41 -189 57 -311 17 -125
6 -361 -24 -492 -13 -59 -26 -110 -28 -113 -9 -9 -381 -28 -564 -28 -224 -1
-429 21 -487 53 -23 13 -85 13 -93 0 -6 -9 209 -385 241 -421 8 -8 14 -19 14
-23 0 -5 13 -25 29 -45 16 -20 90 -124 165 -231 74 -107 140 -200 146 -207 5
-7 10 -15 10 -18 0 -3 12 -24 26 -46 31 -50 27 -57 -78 -116 -79 -45 -222 -85
-370 -104 -356 -46 -359 -46 -448 -92 -109 -55 -114 -73 -33 -111 32 -15 81
-40 108 -56 28 -16 57 -32 65 -36 33 -13 85 -39 90 -44 13 -15 134 -102 210
-152 92 -60 179 -106 324 -170 50 -22 93 -41 95 -43 7 -8 -100 -152 -146 -196
l-48 -47 -231 172 c-127 94 -258 194 -292 221 -33 28 -95 75 -138 105 -71 51
-130 97 -194 154 -14 12 -45 37 -70 56 -25 18 -49 38 -55 44 -5 6 -73 58 -150
116 -77 57 -142 107 -145 110 -15 18 -154 130 -162 130 -5 0 -41 24 -81 53
-40 28 -91 65 -115 81 -23 16 -53 38 -65 50 -13 12 -53 42 -88 66 -35 24 -97
67 -137 95 -40 27 -81 55 -90 60 -9 6 -31 21 -48 35 -16 14 -63 45 -102 70
-40 25 -109 69 -154 98 -45 28 -85 52 -90 52 -14 0 -208 99 -218 111 -3 4 -23
15 -45 24 -56 25 -240 26 -310 1 -121 -42 -178 -86 -207 -161 -8 -22 -19 -81
-22 -131 l-7 -91 45 -77 c25 -43 46 -83 46 -89 1 -7 18 -44 38 -84 20 -39 63
-122 95 -185 79 -154 100 -192 131 -232 14 -19 26 -37 26 -40 0 -3 17 -34 38
-69 20 -34 48 -84 62 -111 14 -27 71 -116 127 -200 56 -83 146 -216 200 -296
104 -156 180 -242 228 -260 17 -6 69 -10 116 -9 83 3 88 2 122 -27 20 -16 45
-36 57 -44 16 -12 24 -38 40 -135 25 -154 25 -162 -2 -171 -13 -4 -25 -9 -28
-13 -10 -12 -69 -51 -78 -51 -4 0 -24 -16 -43 -36 -18 -20 -68 -62 -110 -94
-220 -169 -281 -255 -436 -611 l-58 -134 0 -315 c0 -271 3 -325 18 -384 17
-62 70 -166 89 -174 4 -2 8 -9 8 -16 0 -25 68 -137 117 -193 11 -12 28 -34 39
-48 10 -15 24 -32 29 -39 32 -37 44 -84 42 -166 -2 -95 10 -131 72 -213 24
-33 51 -55 84 -69 57 -25 62 -18 -87 -141 -61 -50 -131 -109 -156 -131 -25
-23 -90 -79 -145 -126 -54 -47 -151 -135 -214 -196 -64 -61 -178 -169 -255
-240 -97 -90 -133 -130 -121 -132 9 -2 27 5 38 16 12 10 245 219 518 464 273
245 505 451 516 456 20 11 69 17 116 14 18 -1 27 -8 27 -18 0 -25 90 -141 167
-215 170 -164 364 -238 678 -259 202 -14 204 -14 244 -68 19 -26 51 -86 72
-133 33 -76 36 -91 28 -125 -12 -53 -11 -134 1 -134 6 0 10 18 10 40 0 21 5
61 10 88 10 46 9 54 -30 142 -22 51 -46 101 -53 109 -7 9 -28 48 -47 86 -70
148 -119 238 -132 243 -4 2 -8 8 -8 14 0 6 -33 61 -73 122 -176 265 -181 275
-208 393 -8 36 -7 48 3 55 24 15 65 8 89 -15 95 -91 173 -198 254 -351 26 -48
77 -133 114 -189 36 -55 71 -107 76 -116 6 -9 13 -18 16 -21 3 -3 16 -27 28
-54 12 -28 32 -64 45 -80 12 -17 33 -50 46 -73 13 -24 27 -43 30 -43 7 0 27
132 32 205 2 22 -2 40 -7 40 -6 0 -11 -20 -13 -45 -4 -77 -10 -92 -35 -88 -20
3 -22 10 -25 66 -2 43 2 71 11 86 8 12 18 36 21 53 10 43 58 83 100 83 23 0
40 -9 62 -32 45 -50 81 -107 105 -170 22 -59 47 -81 34 -31 -4 16 -9 53 -12
83 -4 49 0 64 31 124 19 38 41 73 48 77 7 5 32 9 55 9 35 0 50 -6 83 -36 22
-20 40 -41 40 -46 0 -6 25 -48 55 -94 30 -47 55 -89 55 -94 0 -6 6 -10 14 -10
10 0 20 34 36 117 19 100 22 140 18 269 -3 82 -10 159 -16 170 -6 10 -18 60
-26 109 -8 50 -22 110 -30 134 -11 30 -16 80 -16 161 0 116 0 118 29 149 16
17 33 31 38 31 13 -1 37 -23 53 -50 79 -136 101 -181 110 -229 6 -31 16 -78
22 -106 15 -68 12 -396 -6 -745 -9 -157 -16 -288 -16 -292 0 -5 7 -8 15 -8 11
0 15 12 15 46 0 25 5 54 10 65 19 35 84 21 151 -32 l39 -31 0 -92 c0 -96 -5
-110 -58 -169 l-26 -27 26 0 c23 0 58 27 58 45 0 5 8 17 17 27 25 28 25 200 0
246 -19 35 -70 64 -146 83 l-44 10 7 122 c3 67 9 160 12 206 6 77 -12 524 -22
562 -3 11 6 21 26 29 101 42 156 164 148 324 -4 71 -10 95 -36 145 -17 33 -39
69 -49 81 -12 13 -22 52 -30 113 -19 147 -82 414 -107 449 -9 12 -16 31 -16
41 0 10 -24 66 -52 125 -52 105 -53 109 -53 196 0 55 4 91 11 93 6 2 100 -94
209 -214 109 -120 238 -261 287 -315 49 -53 98 -108 109 -122 18 -23 29 -88
74 -434 136 -1044 175 -1246 337 -1766 11 -35 32 -56 44 -43 5 4 -52 199 -76
262 -9 24 -26 88 -59 223 -6 23 -16 61 -22 85 -6 23 -14 65 -19 92 -4 28 -14
75 -21 106 -12 53 -9 89 8 89 4 0 39 -60 77 -133 38 -72 91 -172 118 -222 27
-49 86 -160 130 -245 44 -85 89 -164 99 -174 29 -31 36 -9 11 37 -26 46 -96
183 -106 207 -4 8 -12 24 -19 35 -18 30 -147 266 -207 380 -30 55 -62 114 -72
130 -10 17 -18 37 -18 46 0 29 176 364 215 409 7 8 16 25 19 38 4 12 12 22 17
22 5 0 9 5 9 10 0 6 -79 118 -175 250 l-175 240 141 226 c88 142 137 230 131
236 -6 6 -17 -1 -29 -19 -53 -75 -273 -436 -273 -448 0 -7 6 -20 13 -27 7 -7
35 -40 62 -73 28 -33 53 -61 57 -63 4 -2 21 -27 40 -55 18 -29 56 -83 84 -122
29 -38 59 -86 67 -106 14 -35 14 -37 -29 -110 -24 -41 -50 -87 -58 -104 -9
-16 -26 -48 -38 -70 -13 -22 -45 -80 -72 -128 -54 -99 -66 -100 -66 -6 0 30
-4 59 -9 65 -5 5 -14 47 -20 94 -5 47 -14 114 -20 150 -18 118 -41 283 -61
440 -11 85 -29 226 -40 313 l-21 159 -142 156 c-78 85 -198 217 -267 292 -69
74 -151 164 -183 199 -32 34 -63 61 -71 58 -8 -3 -17 11 -24 40 -7 25 -25 64
-41 87 -33 47 -204 213 -268 258 -26 19 -43 39 -43 51 0 23 -21 98 -57 200
-12 38 -23 75 -23 83 0 20 27 29 53 17 34 -16 152 -43 186 -43 33 0 171 -37
264 -71 59 -22 58 -21 72 -91 2 -10 -2 -18 -9 -18 -7 0 -16 -28 -23 -72 -16
-110 -27 -140 -72 -206 -46 -69 -49 -78 -22 -87 27 -8 384 -22 458 -17 85 5
92 -3 99 -120 5 -77 2 -104 -15 -158 -19 -60 -20 -66 -4 -77 22 -17 46 -16 90
2 20 8 39 13 42 10 3 -3 13 -45 23 -92 20 -103 40 -133 99 -153 24 -8 50 -19
58 -24 27 -17 118 -14 161 5 54 24 62 24 92 -6 26 -25 111 -77 160 -96 14 -6
29 -17 32 -26 4 -8 2 -124 -4 -257 -6 -157 -7 -291 0 -386 50 -753 68 -950
105 -1150 9 -47 20 -113 25 -148 5 -35 12 -67 14 -71 5 -7 19 -89 43 -238 4
-23 -1 -41 -17 -63 l-21 -30 23 0 c18 1 44 30 120 138 53 75 176 247 272 381
96 134 300 428 452 653 246 365 275 411 261 425 -16 17 -14 19 -111 -120 l-48
-69 -29 28 -29 27 47 86 c26 47 65 122 88 166 23 44 46 89 52 100 6 11 16 37
22 57 11 36 10 40 -44 126 -30 50 -55 95 -55 101 0 6 -3 11 -8 11 -4 0 -18 24
-32 53 -13 28 -27 54 -30 57 -3 3 -17 23 -30 45 -13 22 -30 44 -37 48 -7 4
-13 14 -13 21 0 12 -20 26 -36 26 -12 0 6 -34 104 -197 59 -98 118 -199 131
-224 l23 -45 -102 -204 c-56 -113 -106 -206 -111 -208 -17 -7 -9 -27 28 -64
43 -44 47 -34 -62 -192 -70 -102 -82 -114 -92 -99 -7 9 -13 35 -13 57 0 23 -5
59 -11 81 -5 22 -17 94 -25 160 -9 66 -22 165 -30 220 -7 55 -27 231 -43 390
l-29 290 21 17 c12 10 27 18 32 18 10 0 59 24 184 91 80 42 158 112 218 196
47 66 113 194 113 219 0 22 25 17 51 -11 13 -13 27 -25 32 -25 4 0 15 -8 26
-18 10 -9 56 -51 101 -92 55 -50 127 -134 216 -251 119 -159 135 -185 164
-270 29 -84 33 -106 33 -204 0 -196 -20 -274 -121 -468 -178 -340 -197 -370
-607 -946 -407 -570 -411 -576 -381 -579 21 -3 34 2 43 15 58 82 158 207 169
210 10 3 44 -149 44 -200 0 -21 5 -27 20 -27 23 0 24 -10 -11 173 -18 91 -18
101 -3 132 8 18 24 41 35 51 10 9 19 23 19 31 0 7 3 13 8 13 4 0 16 17 27 37
11 20 31 51 45 69 14 18 42 58 64 89 26 39 42 53 49 46 9 -9 -1 -294 -20 -573
-5 -67 -4 -68 20 -68 l24 0 7 362 7 361 29 37 c42 52 135 183 143 201 4 8 21
37 37 64 17 28 42 73 57 100 14 28 36 64 48 80 12 17 25 39 29 49 3 10 8 17
10 15 3 -2 32 -123 66 -269 83 -358 152 -630 217 -845 8 -27 19 -68 25 -90 14
-52 25 -65 54 -65 22 0 23 1 9 34 -52 124 -120 346 -161 526 -9 41 -25 107
-36 145 -10 39 -23 86 -28 105 -4 19 -16 62 -24 95 -15 54 -51 211 -86 366
-12 54 -12 58 16 110 15 30 33 61 40 69 13 17 71 132 86 170 5 14 16 38 24 54
19 37 54 241 54 309 0 55 -29 192 -57 267 -20 55 -69 133 -114 185 -19 21 -50
62 -69 91 -55 84 -218 252 -305 317 -44 32 -84 67 -89 77 -6 13 -3 33 8 60 9
22 16 49 16 59 0 12 10 20 29 24 16 4 46 20 66 38 30 27 47 33 108 39 102 11
137 20 137 36 0 8 -18 56 -39 108 -32 76 -37 96 -25 100 8 3 75 9 150 12 130
7 135 8 132 28 -2 12 -63 77 -140 150 -120 112 -138 132 -138 160 0 17 -3 47
-6 67 -6 36 -5 37 51 70 31 19 70 44 86 57 46 38 250 138 307 152 52 12 80 38
66 61 -3 6 -37 30 -74 54 -150 96 -227 166 -316 287 -35 48 -64 91 -64 97 0
31 153 254 202 294 24 19 75 53 113 75 39 23 99 69 135 102 36 33 72 62 82 65
22 8 30 32 16 54 -9 15 -29 21 -87 26 -147 13 -228 47 -401 167 -140 98 -144
102 -125 137 13 23 63 132 117 251 11 25 34 74 51 110 16 36 35 79 42 95 7 17
18 41 23 55 51 121 101 211 167 300 43 57 78 111 79 120 1 12 -8 14 -43 12
-25 -1 -50 -7 -55 -11 -43 -34 -262 -82 -476 -106 -160 -17 -241 -31 -282 -47
-15 -5 -31 -7 -36 -4 -5 3 -3 49 5 108 35 271 53 465 53 593 0 126 -3 155 -33
275 -19 77 -49 167 -70 208 -19 40 -39 86 -42 103 -5 23 -12 29 -33 29 -25 0
-34 -14 -109 -163 -56 -110 -110 -199 -168 -277 -48 -63 -100 -133 -116 -154
-16 -22 -109 -123 -206 -224 l-176 -183 -64 70 c-35 38 -91 103 -124 143 -70
85 -134 152 -181 189 -18 15 -80 71 -138 124 -106 99 -242 215 -447 383 -101
83 -117 92 -154 92 l-41 0 119 -96 c65 -52 125 -106 133 -120 8 -13 21 -23 30
-21 8 1 15 -3 15 -10 0 -11 47 -53 60 -53 3 0 16 -10 28 -23 12 -12 42 -36 67
-52 60 -41 319 -294 519 -509 91 -97 172 -176 180 -176 29 0 411 410 523 561
56 75 168 262 168 279 0 6 3 10 8 10 10 0 39 57 46 91 3 15 14 29 24 31 16 5
26 -14 66 -114 70 -176 81 -234 81 -428 0 -117 -6 -191 -18 -255 -10 -49 -22
-155 -27 -235 -4 -80 -11 -163 -15 -186 -9 -53 4 -58 84 -34 55 18 143 31 391
61 46 5 108 17 137 25 29 8 56 13 61 10 7 -4 109 26 165 49 32 13 19 -22 -39
-102 -70 -97 -126 -192 -171 -291 -101 -220 -232 -533 -228 -544 8 -21 253
-189 335 -231 49 -25 99 -42 145 -48 89 -13 117 -21 122 -35 2 -6 -40 -42 -94
-80 -129 -91 -222 -169 -275 -232 -64 -75 -159 -238 -151 -259 12 -33 141
-198 200 -255 32 -31 96 -82 143 -113 47 -32 85 -64 85 -73 0 -9 -32 -26 -90
-46 -119 -43 -172 -71 -282 -149 l-92 -66 -27 47 c-37 64 -51 79 -110 117
l-51 33 2 189 c2 172 5 196 26 249 30 77 33 253 5 324 -10 25 -20 57 -23 73
-3 15 -13 32 -22 36 -31 18 -49 78 -76 251 -27 177 -55 281 -100 369 l-24 48
22 10 c65 30 61 139 -8 231 -75 99 -137 150 -251 203 -169 79 -201 84 -549 84
-198 0 -317 -4 -351 -12 -99 -23 -228 -77 -292 -120 -35 -24 -75 -48 -88 -53
-13 -5 -24 -14 -24 -20 0 -5 -6 -10 -14 -10 -8 0 -16 -3 -18 -8 -1 -4 -46 -40
-99 -79 -118 -89 -220 -195 -257 -271 -31 -61 -74 -187 -118 -346 l-27 -99 12
-491 c7 -270 16 -543 21 -606 l10 -115 -28 -23 c-15 -12 -46 -39 -70 -58 -24
-21 -56 -61 -72 -95 -27 -52 -30 -68 -30 -151 0 -86 3 -99 34 -163 33 -68 97
-145 121 -145 7 0 18 -7 25 -15 7 -8 19 -15 27 -15 8 0 29 -6 46 -14 18 -8 46
-18 62 -23 23 -7 31 -16 33 -39 2 -16 8 -32 13 -35 5 -3 12 -29 16 -57 3 -28
9 -49 14 -47 4 3 10 -16 14 -42 3 -27 8 -56 10 -65 1 -10 -5 -43 -15 -75 -14
-48 -23 -61 -51 -75 -34 -18 -89 -24 -89 -10 0 4 7 29 15 56 18 59 19 119 4
221 -9 57 -15 75 -25 71 -8 -3 -14 -2 -14 3 0 5 -114 12 -252 16 -139 4 -254
8 -256 10 -2 1 13 27 32 58 42 65 69 142 91 260 12 68 13 92 4 103 -25 30
-328 116 -582 165 -46 8 -60 16 -69 35 -6 13 -9 26 -7 28 2 2 69 52 148 111
79 59 166 130 193 158 69 72 157 199 154 222 -3 22 12 13 -196 113 -165 79
-244 129 -388 245 -56 45 -113 78 -207 121 -71 32 -133 61 -137 65 -5 4 17 22
47 40 60 36 121 49 450 91 94 12 204 33 245 46 74 23 270 136 270 155 0 5 -73
112 -161 237 -249 350 -509 755 -496 769 3 2 77 -7 164 -22 212 -36 415 -42
683 -21 284 23 310 27 310 42 0 7 -5 14 -12 16 -8 3 -5 37 13 124 20 101 24
147 24 304 -1 207 -9 265 -109 735 -44 211 -55 251 -71 253 -17 4 -17 -1 -11
-64z m1250 -1433 c-17 -10 -49 -22 -72 -26 -23 -4 -44 -11 -47 -15 -3 -5 -26
-12 -51 -16 -25 -3 -48 -13 -51 -20 -3 -8 -14 -14 -26 -14 -25 0 -97 -31 -97
-42 0 -4 -9 -8 -19 -8 -11 0 -23 -4 -26 -10 -3 -5 -30 -21 -59 -35 -76 -36
-219 -127 -294 -188 -35 -29 -92 -87 -127 -130 -72 -89 -165 -261 -165 -304 0
-18 11 -41 30 -62 26 -27 36 -32 60 -28 18 4 100 68 217 168 103 89 231 194
283 233 296 221 559 266 962 165 99 -25 138 -41 210 -84 49 -30 92 -55 96 -57
12 -5 72 -137 72 -157 0 -11 4 -21 10 -23 5 -1 13 -28 19 -58 5 -30 14 -73 20
-95 6 -22 11 -63 11 -91 0 -28 3 -54 7 -58 9 -8 33 -109 28 -114 -1 -2 -13 11
-25 27 -12 17 -26 31 -31 31 -5 0 -26 11 -47 25 -75 49 -148 68 -267 68 -96 1
-119 -3 -178 -26 -86 -34 -141 -72 -206 -143 -113 -124 -154 -280 -116 -443
38 -161 170 -308 326 -362 91 -32 259 -33 342 -2 70 26 141 70 190 118 20 19
39 35 43 35 4 0 13 8 21 18 12 15 13 -12 8 -193 -14 -557 -17 -615 -29 -615
-7 0 -46 11 -86 25 -48 16 -77 22 -84 15 -10 -10 5 -18 137 -64 42 -16 90 -40
106 -55 58 -54 72 -184 30 -286 -38 -92 -62 -103 -289 -132 -90 -11 -74 -28
27 -28 85 0 116 -12 96 -37 -6 -7 -23 -51 -38 -98 -52 -160 -76 -199 -185
-303 -86 -82 -118 -104 -220 -156 -76 -39 -148 -68 -202 -81 -109 -25 -305
-53 -318 -45 -16 10 -12 36 8 51 15 11 18 37 22 216 6 202 6 203 34 247 24 37
30 42 38 28 13 -25 133 -24 146 1 14 25 32 141 32 200 l0 51 43 12 c40 11 79
23 160 48 27 9 96 11 256 5 l218 -7 34 31 c32 29 34 33 34 101 0 70 0 70 -45
116 -58 59 -161 108 -273 128 -81 15 -98 15 -195 1 -59 -8 -138 -27 -177 -41
-180 -65 -214 -79 -265 -112 -30 -20 -57 -36 -60 -37 -3 0 -54 -24 -115 -53
-60 -29 -162 -70 -225 -91 -315 -102 -475 -246 -488 -438 -12 -179 114 -212
313 -81 37 24 71 43 74 42 4 -1 31 16 60 38 38 29 57 37 64 30 6 -6 23 -11 38
-11 23 0 28 -5 31 -27 3 -25 8 -28 45 -31 35 -3 45 1 73 30 l31 33 -4 -55 c-3
-30 -10 -136 -17 -235 -7 -99 -14 -182 -16 -184 -8 -9 -187 40 -236 65 -102
51 -209 126 -199 138 5 6 41 34 80 61 64 45 88 75 61 75 -6 0 -44 -25 -86 -56
-110 -82 -153 -99 -249 -99 -94 0 -146 20 -164 63 -6 15 -17 61 -24 102 -11
66 -11 83 4 135 24 87 33 107 90 202 33 57 47 89 40 96 -9 9 -27 -16 -96 -128
-8 -13 -26 39 -78 222 -146 517 -159 622 -178 1429 l-12 482 38 138 c20 77 41
143 46 148 5 6 9 18 9 28 0 10 11 39 24 66 13 26 30 63 39 82 34 81 161 194
407 362 152 104 262 149 420 172 14 2 70 4 125 5 l100 1 -31 -19z m446 -14
c58 -13 110 -33 220 -85 42 -20 157 -131 192 -187 15 -22 29 -59 33 -83 7 -41
6 -43 -26 -56 -37 -15 -50 -13 -94 19 -54 39 -158 82 -250 104 -49 12 -108 26
-129 32 -22 6 -108 13 -191 16 -239 9 -355 -24 -604 -172 -9 -5 -49 -36 -88
-67 -40 -32 -76 -58 -82 -58 -5 0 -11 -4 -13 -8 -1 -5 -27 -26 -55 -46 -29
-21 -53 -42 -53 -47 0 -5 -4 -9 -10 -9 -5 0 -56 -47 -112 -104 -57 -57 -113
-107 -125 -111 -16 -4 -28 2 -47 22 -14 15 -26 31 -26 36 0 18 96 197 135 252
81 114 225 233 395 328 138 76 501 216 614 237 66 12 233 5 316 -13z m-5033
-166 c10 -5 37 -19 60 -30 23 -11 50 -24 60 -30 10 -5 25 -12 33 -15 8 -4 29
-15 45 -26 17 -10 57 -33 90 -50 55 -28 1876 -1363 1955 -1434 44 -38 69 -57
195 -149 96 -69 139 -104 174 -138 9 -9 24 -21 35 -26 19 -11 -8 -34 -192
-167 -61 -44 -58 -45 -107 49 -14 28 -72 107 -130 177 -82 99 -105 133 -105
157 0 19 -6 32 -17 35 -10 3 -32 18 -48 33 -49 45 -70 54 -235 109 -166 55
-356 94 -456 94 -77 0 -82 3 -163 78 -25 23 -43 51 -48 73 -7 30 -77 99 -482
475 -261 241 -480 440 -487 442 -25 6 -15 -18 24 -58 20 -21 53 -55 72 -75 80
-83 493 -476 551 -524 18 -14 46 -38 63 -54 17 -15 70 -60 119 -99 48 -39 87
-75 87 -80 0 -4 -20 -8 -45 -8 -75 0 -229 -43 -332 -93 -163 -78 -288 -247
-303 -410 -4 -37 -10 -70 -13 -74 -4 -3 -15 5 -26 18 -24 29 -790 1330 -812
1379 -38 83 -39 89 -29 178 5 48 10 94 10 103 0 21 77 99 99 99 9 0 25 7 35
15 11 8 29 15 41 15 12 0 25 4 31 9 5 5 23 12 39 14 45 8 191 -1 212 -12z
m5322 -777 c96 -24 158 -59 227 -128 59 -60 113 -148 128 -211 40 -164 -15
-348 -136 -461 -66 -61 -88 -74 -177 -104 -52 -18 -79 -21 -179 -18 -108 3
-122 6 -185 35 -169 80 -290 277 -274 446 13 136 50 218 139 308 70 71 133
109 218 131 83 22 157 22 239 2z m-4171 -567 l73 -73 -51 -12 c-28 -7 -66 -12
-83 -12 -21 0 -28 -3 -19 -9 10 -6 8 -10 -10 -14 -12 -4 -33 -7 -46 -7 -13 0
-20 -4 -17 -10 3 -5 1 -10 -6 -10 -24 0 -144 -78 -188 -122 -43 -43 -82 -109
-95 -160 -3 -16 -10 -28 -14 -28 -4 1 -32 37 -62 82 -30 45 -70 102 -88 125
l-33 44 21 28 c95 135 301 231 530 250 9 0 48 -32 88 -72z m270 -112 c250 -26
347 -54 555 -163 89 -47 107 -60 103 -76 -3 -13 10 -36 38 -70 62 -73 206
-271 249 -341 54 -89 101 -211 148 -390 38 -140 43 -176 47 -286 3 -124 3
-127 -23 -158 -18 -21 -36 -31 -54 -31 l-28 0 -48 198 c-95 393 -135 475 -334
670 -70 68 -132 121 -141 120 -10 -3 -14 -14 -13 -38 19 -388 19 -388 -47
-444 -40 -33 -77 -33 -126 0 -83 56 -89 68 -89 184 0 102 -22 221 -45 244 -16
16 -21 0 -10 -30 6 -16 18 -60 26 -98 27 -130 -9 -325 -70 -375 -26 -22 -153
-9 -212 20 -38 18 -55 36 -76 74 -15 28 -28 64 -28 80 0 17 -5 36 -12 43 -9 9
-9 18 1 38 l12 27 62 -61 c59 -59 87 -75 87 -52 0 10 -264 272 -280 278 -4 2
-11 -1 -14 -6 -3 -5 12 -168 34 -363 51 -464 64 -623 58 -716 -5 -68 -8 -79
-32 -100 -80 -68 -111 40 -236 812 -59 366 -62 381 -88 402 -15 12 -34 25 -42
28 -37 14 -54 57 -58 151 -4 83 -2 97 23 153 55 122 191 212 406 270 91 24 79
24 257 6z m-813 -279 c39 -58 75 -106 82 -106 10 0 24 -117 16 -129 -2 -2 -38
-6 -81 -9 -105 -6 -134 9 -168 86 -25 54 -25 61 -15 135 6 42 20 100 33 129
l22 51 20 -26 c12 -14 53 -73 91 -131z m5132 -185 c30 -22 46 -45 67 -95 49
-124 28 -256 -55 -349 l-41 -45 -30 16 -30 17 7 235 c4 129 9 238 12 243 8 14
30 7 70 -22z m-3665 -228 c131 -132 161 -183 109 -183 -10 0 -44 13 -77 29
-32 15 -76 31 -96 35 -25 5 -39 13 -40 24 -1 9 -3 31 -5 47 -11 95 -14 155 -6
155 4 0 56 -48 115 -107z m1356 61 c8 -86 48 -296 78 -413 36 -142 40 -166 24
-176 -5 -3 -47 11 -93 33 -92 43 -125 76 -169 167 -24 51 -28 73 -28 143 0 71
4 90 29 140 28 56 60 92 111 125 33 21 44 17 48 -19z m-2240 -117 c41 -42 42
-44 24 -60 -33 -30 -50 -21 -67 35 -25 85 -19 88 43 25z m4787 -143 c69 -65
111 -112 108 -120 -4 -11 -35 -14 -139 -14 -104 0 -134 -3 -134 -13 0 -7 18
-59 41 -116 22 -56 38 -105 35 -109 -11 -10 -130 -21 -139 -13 -5 5 -1 31 8
57 18 54 14 125 -11 197 -14 40 -14 41 19 76 41 45 60 75 76 124 7 20 15 37
18 37 2 0 56 -48 118 -106z m-967 -110 c6 -58 -74 -102 -131 -73 -24 13 -37
28 -37 45 0 14 64 44 95 44 13 0 27 5 30 11 13 21 40 4 43 -27z m-232 -58 c10
-25 -28 -87 -67 -112 -47 -30 -69 -30 -103 -3 l-27 21 22 24 c12 13 30 24 39
24 9 0 21 5 26 10 16 16 77 49 92 49 7 1 15 -5 18 -13z m414 -125 c7 -13 7
-28 0 -45 -8 -23 -15 -26 -54 -26 -24 0 -58 -3 -76 -7 l-33 -6 19 33 c10 17
30 41 43 51 32 25 87 25 101 0z m188 -33 l3 -38 -54 0 c-29 0 -56 3 -60 6 -9
10 24 55 47 65 42 17 61 7 64 -33z m-860 11 c-2 -4 -23 -31 -46 -58 -40 -47
-47 -51 -87 -51 -42 0 -55 10 -55 45 0 7 28 23 63 36 34 12 64 26 67 29 14 19
65 18 58 -1z m414 -11 c22 -19 28 -44 15 -62 -12 -15 -186 -80 -194 -72 -3 2
7 22 21 44 35 56 81 89 137 101 3 0 12 -5 21 -11z m-2832 -118 c91 -23 169
-44 173 -47 4 -3 4 -10 -2 -16 -12 -16 -67 -161 -81 -217 -6 -25 -27 -93 -46
-152 -38 -120 -38 -121 -23 -116 11 4 56 134 85 243 20 78 72 217 87 231 7 6
31 14 54 17 42 5 43 4 52 -30 9 -32 7 -37 -19 -59 -38 -32 -110 -183 -155
-325 -20 -63 -43 -127 -52 -144 -75 -140 -94 -224 -75 -336 24 -139 48 -173
329 -454 130 -130 231 -209 260 -203 11 2 2 12 -30 32 -26 17 -44 33 -40 36 5
4 41 5 81 2 l72 -4 0 -69 0 -69 -53 0 c-62 0 -77 9 -173 102 -39 39 -74 66
-78 60 -7 -12 122 -140 167 -164 19 -11 53 -18 87 -18 l55 0 23 -78 c28 -93
60 -257 68 -350 l6 -67 -77 -76 -77 -76 -30 28 c-50 45 -140 57 -169 23 -7 -8
-29 -47 -49 -87 -21 -40 -42 -72 -48 -72 -6 0 -24 18 -40 41 -31 43 -84 74
-124 74 -35 0 -102 -74 -134 -147 -14 -35 -30 -63 -34 -63 -4 0 -13 13 -20 29
-6 16 -20 37 -31 47 -10 9 -19 23 -19 29 0 7 -7 15 -15 19 -8 3 -15 14 -15 25
0 10 -7 21 -15 25 -8 3 -15 12 -15 21 0 8 -4 15 -10 15 -5 0 -10 9 -10 19 0
26 -32 81 -47 81 -7 0 -13 11 -13 24 0 13 -7 26 -15 30 -8 3 -15 12 -15 20 0
8 -3 16 -7 18 -5 2 -17 19 -27 38 -50 92 -87 153 -117 189 l-32 40 47 55 c26
30 55 74 66 98 22 50 75 296 66 305 -14 14 -26 -18 -50 -131 -29 -135 -59
-206 -110 -255 l-35 -34 -27 22 c-15 11 -22 21 -16 21 19 0 98 114 121 173 14
39 23 94 28 165 5 92 10 114 34 157 33 59 59 160 59 230 0 69 -25 169 -58 228
-26 48 -119 154 -152 173 -9 5 -31 29 -50 54 -73 95 -172 181 -249 217 -44 21
-83 33 -97 30 -21 -4 -24 -1 -24 29 0 43 11 48 73 33 60 -14 111 -37 187 -84
61 -38 101 -48 60 -15 -59 47 -188 109 -252 122 -65 12 -66 13 -72 48 -3 19
-6 51 -6 71 l0 37 118 50 c284 122 328 134 487 128 99 -3 148 -11 285 -46z
m2180 27 c0 -40 -38 -104 -75 -127 -36 -22 -74 -22 -102 2 -29 23 -5 98 30 98
7 0 35 11 62 25 64 31 85 32 85 2z m416 -18 c15 -30 15 -32 -6 -46 -12 -9 -56
-33 -98 -54 -93 -47 -104 -36 -46 48 60 87 121 108 150 52z m141 -56 c6 -16
-12 -167 -23 -198 -9 -22 -103 -21 -119 2 -17 23 -40 11 -72 -39 -27 -42 -27
-46 -33 -246 -4 -180 -7 -205 -22 -213 -12 -7 -18 -22 -18 -44 0 -35 -10 -42
-44 -29 -30 12 -30 37 1 424 4 54 2 68 -12 80 -14 12 -20 9 -48 -23 -22 -26
-40 -37 -59 -37 -25 0 -28 4 -28 34 0 35 -13 55 -25 36 -7 -12 -45 -14 -44 -2
0 12 108 77 219 132 58 28 112 57 120 64 8 7 35 20 60 30 25 10 59 24 75 31
41 19 64 18 72 -2z m-777 -25 c0 -45 -25 -100 -58 -129 -28 -25 -41 -30 -65
-25 -34 7 -47 21 -47 51 1 25 14 42 65 81 45 34 86 54 98 47 4 -2 7 -14 7 -25z
m-1331 -208 c31 -47 63 -100 70 -118 14 -35 28 -41 37 -17 4 8 9 15 14 15 13
0 96 -134 120 -195 13 -33 30 -69 37 -80 7 -11 13 -29 13 -42 0 -12 4 -24 10
-28 12 -7 23 -47 60 -210 44 -199 54 -289 41 -400 -10 -99 -60 -315 -72 -315
-4 0 -12 20 -18 44 -6 25 -15 48 -21 51 -15 9 -12 48 5 71 16 21 20 84 6 84
-6 0 -11 -14 -13 -31 -2 -26 -8 -32 -30 -35 -17 -1 -28 2 -28 9 1 18 36 118
55 155 20 38 33 152 18 152 -6 0 -13 -25 -16 -55 -3 -30 -13 -70 -22 -88 -10
-17 -23 -50 -30 -72 -8 -27 -19 -41 -32 -43 -23 -3 -23 2 23 192 13 54 24 113
24 131 0 18 7 52 16 76 12 30 17 77 18 144 0 112 -19 180 -72 257 -38 54 -118
138 -132 138 -5 0 -9 3 -8 8 8 24 -158 251 -221 305 -18 14 -20 21 -11 37 11
20 13 19 56 -17 25 -20 71 -76 103 -123z m-315 85 c23 -17 97 -20 113 -4 16
16 45 -2 84 -53 52 -66 53 -68 64 -81 6 -7 21 -29 34 -50 32 -53 21 -61 -64
-46 -119 20 -262 -8 -342 -67 -17 -13 -41 -24 -52 -24 -20 0 -20 0 1 63 11 34
29 82 40 107 11 24 24 54 29 67 12 32 58 103 67 103 4 0 16 -7 26 -15z m-1426
-138 c3 -42 -1 -53 -33 -91 -50 -62 -112 -231 -131 -362 -14 -93 -14 -127 0
-113 3 3 12 50 20 106 15 98 78 294 97 301 5 2 9 9 9 16 0 19 47 59 59 51 16
-9 13 -61 -4 -75 -8 -7 -15 -22 -15 -34 0 -12 -18 -76 -39 -142 -22 -69 -41
-148 -44 -189 -3 -38 -11 -95 -18 -125 -22 -102 7 -255 65 -339 14 -20 39 -56
55 -81 33 -49 34 -50 71 -96 14 -18 39 -49 55 -70 42 -54 147 -154 162 -154 7
0 13 -4 13 -9 0 -5 34 -26 75 -45 54 -26 73 -40 69 -51 -4 -8 -12 -15 -20 -15
-32 0 -203 62 -244 88 -42 27 -119 103 -182 180 -27 32 -48 42 -48 21 0 -15
142 -179 178 -206 40 -30 151 -83 173 -83 9 0 22 -7 29 -15 7 -9 29 -15 55
-15 47 0 60 -10 71 -55 8 -36 46 -111 90 -180 17 -27 43 -72 57 -100 14 -27
50 -84 81 -125 54 -73 170 -284 164 -298 -5 -12 -376 25 -429 42 -26 9 -53 16
-59 16 -13 0 -66 22 -113 46 -16 8 -34 14 -40 14 -23 0 -134 78 -199 139 -36
33 -94 102 -129 151 l-64 90 -70 0 c-90 0 -166 22 -202 59 -16 16 -43 58 -61
94 -34 69 -40 122 -22 189 10 33 62 91 104 115 16 9 15 22 -15 174 -23 120
-32 205 -36 315 -6 156 -2 180 43 309 8 23 14 49 14 60 0 37 90 204 163 301
83 111 213 247 231 241 6 -2 12 -25 14 -50z m368 -101 c27 -13 79 -55 116 -92
67 -68 85 -101 51 -90 -92 28 -167 32 -259 15 -92 -17 -158 -55 -246 -142 -44
-43 -82 -76 -85 -73 -4 3 1 14 10 24 10 10 17 27 17 37 0 11 6 37 14 60 8 22
22 70 31 108 13 51 21 67 35 67 10 0 23 -6 29 -14 19 -22 59 -28 89 -12 21 11
31 28 45 75 l18 61 43 0 c24 0 63 -10 92 -24z m1309 -32 c33 -8 80 -27 105
-41 87 -51 190 -176 190 -231 0 -11 7 -36 15 -55 8 -20 15 -59 15 -87 0 -32
-6 -57 -15 -66 -8 -9 -15 -30 -15 -48 0 -19 -7 -39 -15 -46 -8 -7 -15 -20 -15
-30 0 -10 -7 -23 -15 -30 -8 -7 -15 -19 -15 -26 0 -7 -24 -37 -53 -66 -41 -41
-67 -57 -113 -71 -32 -9 -67 -17 -76 -17 -9 0 -19 -4 -22 -9 -3 -4 -34 -11
-68 -15 -119 -12 -229 33 -327 133 -163 166 -159 423 9 591 90 90 157 116 335
129 12 0 48 -6 80 -15z m-1103 -202 c282 -139 344 -506 123 -727 -98 -97 -203
-133 -366 -122 -71 5 -104 12 -152 35 -118 55 -220 187 -247 319 -14 65 -5
197 14 216 7 7 16 24 19 38 4 14 18 42 32 63 14 20 25 41 25 47 0 5 7 12 15
15 8 3 17 13 20 22 8 25 87 81 152 108 52 22 70 24 178 22 113 -3 125 -5 187
-36z m2838 -152 c88 -19 124 -21 225 -17 66 4 157 12 202 20 45 7 88 10 95 6
7 -5 14 -30 15 -56 5 -129 23 -361 32 -407 6 -28 18 -109 27 -181 21 -172 62
-453 79 -539 l13 -70 -322 -468 c-176 -257 -323 -468 -326 -468 -9 0 -110 557
-129 711 -6 46 -15 154 -21 239 -5 85 -15 193 -20 240 -5 47 -13 296 -17 554
l-6 469 24 -5 c13 -3 71 -16 129 -28z m-1468 -355 c3 -3 -1 -36 -9 -73 -8 -37
-17 -87 -20 -112 -4 -42 -8 -47 -51 -70 -27 -14 -53 -37 -60 -53 l-14 -28 -91
5 c-98 4 -142 20 -188 65 -14 14 -44 41 -67 60 -54 44 -56 66 -4 57 185 -34
322 -1 435 104 53 50 59 54 69 45z m294 -211 c21 -68 5 -222 -31 -294 -24 -47
-67 -81 -93 -72 -14 4 -16 53 -3 96 38 127 50 180 55 242 3 39 9 85 12 103 l7
32 18 -28 c10 -15 26 -51 35 -79z m-1493 -70 c3 -3 2 -14 -3 -23 -4 -9 -13
-47 -20 -85 -13 -83 -30 -117 -85 -175 -41 -42 -44 -44 -112 -47 -77 -4 -123
13 -208 79 -95 74 -188 178 -172 193 2 3 33 -5 68 -17 76 -27 238 -32 304 -10
60 20 163 69 170 81 7 11 48 14 58 4z m1135 -855 c4 -32 -14 -167 -25 -196 -3
-7 -9 -13 -13 -13 -14 0 -84 123 -82 144 1 22 91 107 107 102 6 -1 12 -18 13
-37z"/>
<path d="M7080 5394 c-128 -21 -180 -51 -233 -132 -63 -96 -71 -112 -58 -125
13 -13 10 -16 50 58 40 73 85 122 129 140 18 8 79 22 137 31 72 12 105 21 105
31 0 16 -19 15 -130 -3z"/>
<path d="M6070 5307 c0 -11 18 -17 73 -22 155 -14 209 -37 330 -139 66 -56 88
-67 86 -43 0 16 -112 108 -184 151 -60 37 -113 51 -232 61 -61 6 -73 5 -73 -8z"/>
<path d="M5912 5150 c-186 -49 -324 -173 -391 -350 -35 -93 -36 -245 -2 -345
61 -178 238 -330 425 -364 131 -24 242 -9 366 51 245 117 370 408 279 647 -47
124 -84 177 -174 250 -76 62 -128 87 -222 112 -95 24 -187 24 -281 -1z m267
-25 c283 -67 465 -352 396 -618 -20 -77 -47 -128 -111 -213 -44 -59 -65 -77
-117 -101 -117 -57 -134 -62 -208 -74 -359 -56 -668 242 -610 589 48 291 354
486 650 417z"/>
<path d="M6207 4672 c-21 -23 -22 -46 -1 -66 30 -31 84 -9 84 34 0 24 -26 50
-49 50 -10 0 -25 -8 -34 -18z"/>
<path d="M6724 4263 c3 -10 20 -58 37 -108 30 -83 33 -102 37 -249 5 -199 -4
-236 -56 -236 -83 0 -141 89 -166 254 -14 95 -20 115 -31 104 -11 -11 27 -216
50 -265 33 -72 93 -115 154 -111 43 3 46 5 57 43 7 23 13 104 13 186 1 153
-15 244 -61 351 -19 45 -48 70 -34 31z"/>
<path d="M6880 4126 c0 -27 130 -129 204 -160 94 -39 208 -27 292 31 86 59 89
62 77 74 -9 9 -22 4 -51 -20 -67 -52 -118 -71 -203 -71 -93 0 -153 27 -239
106 -58 55 -80 65 -80 40z"/>
<path d="M6335 4071 c-3 -6 -36 -30 -73 -55 -177 -117 -306 -119 -474 -5 -40
28 -63 38 -70 31 -12 -12 48 -58 137 -104 51 -27 74 -32 150 -36 90 -4 90 -4
170 38 90 48 195 119 195 131 0 12 -27 11 -35 0z"/>
<path d="M7017 4722 c-21 -23 -22 -46 -1 -66 30 -31 84 -9 84 34 0 24 -26 50
-49 50 -10 0 -25 -8 -34 -18z"/>
<path d="M3775 4200 c-3 -5 9 -23 27 -39 31 -28 32 -31 21 -62 -14 -36 -4 -59
15 -36 7 8 15 27 18 44 5 24 0 37 -26 67 -33 37 -45 43 -55 26z"/>
<path d="M3546 4182 c-3 -5 2 -28 11 -51 16 -40 16 -43 -5 -71 -12 -16 -22
-34 -22 -40 0 -23 33 -4 53 31 19 33 20 40 7 78 -14 44 -34 68 -44 53z"/>
<path d="M3097 4083 c-4 -6 -2 -25 3 -44 14 -46 13 -49 -10 -49 -11 0 -20 -7
-20 -15 0 -20 59 -20 66 0 13 34 -23 134 -39 108z"/>
<path d="M4131 2893 c-17 -26 -35 -63 -40 -82 -15 -59 -21 -141 -11 -141 11 0
16 21 24 93 5 45 27 96 62 144 9 12 11 24 6 27 -6 3 -24 -15 -41 -41z"/>
<path d="M3476 2831 c-3 -5 34 -49 82 -97 62 -62 111 -125 163 -208 67 -109
99 -146 99 -117 0 17 -126 218 -176 281 -39 50 -145 150 -158 150 -3 0 -7 -4
-10 -9z"/>
<path d="M4155 1810 c-3 -6 1 -13 11 -17 24 -9 94 -122 94 -152 0 -26 -33 -90
-54 -103 -27 -18 -76 -7 -121 28 -26 20 -51 32 -55 27 -13 -12 74 -73 114 -80
19 -3 46 -3 60 1 32 8 76 81 76 127 0 61 -105 202 -125 169z"/>
<path d="M3841 1429 c-5 -13 -17 -45 -26 -72 -11 -32 -31 -58 -61 -83 -24 -20
-44 -40 -44 -45 0 -20 30 -7 73 31 36 32 50 54 67 106 16 46 19 69 12 76 -8 8
-14 4 -21 -13z"/>
<path d="M4371 1413 c-48 -9 -219 -168 -274 -255 -30 -47 -98 -209 -92 -219
10 -16 23 -10 30 14 4 12 29 67 55 122 44 92 57 109 146 194 106 102 139 121
210 121 57 0 79 -21 147 -143 27 -48 53 -90 59 -93 25 -16 19 14 -17 84 -44
84 -55 101 -101 149 -29 30 -37 33 -85 32 -30 -1 -65 -4 -78 -6z"/>
<path d="M4338 1240 c-14 -11 -45 -43 -68 -71 -32 -37 -40 -53 -32 -61 8 -8
17 -4 34 18 12 16 39 46 59 67 33 33 42 37 89 37 69 0 64 24 -6 28 -38 2 -56
-2 -76 -18z"/>
<path d="M2776 2462 c-3 -5 -11 -61 -17 -125 -13 -130 -7 -184 37 -319 24 -72
38 -97 50 -85 3 2 -9 51 -26 108 -39 132 -45 190 -31 313 7 60 8 103 2 109 -5
5 -11 5 -15 -1z"/>
<path d="M3094 1319 c-7 -13 -11 -10 74 -66 42 -28 86 -47 132 -57 84 -20 90
-20 90 -2 0 9 -16 17 -42 21 -68 11 -142 43 -191 80 -51 39 -53 40 -63 24z"/>
<path d="M4550 2295 c-26 -32 13 -81 48 -59 34 22 22 74 -18 74 -10 0 -23 -7
-30 -15z"/>
<path d="M3410 2115 c-26 -32 13 -81 48 -59 34 22 22 74 -18 74 -10 0 -23 -7
-30 -15z"/>
<path d="M2696 114 l-109 -114 55 0 c49 0 56 3 61 22 4 12 2 27 -3 33 -6 8 14
34 60 80 67 66 85 96 58 94 -7 0 -62 -52 -122 -115z"/>
</g>
</svg>
